<svg width="392" height="743" viewBox="0 0 392 743" fill="none" xmlns="http://www.w3.org/2000/svg">
<path d="M340.733 8.80577L9.08487 349.03C3.25998 355.006 0 363.021 0 371.366C0 379.711 3.25998 387.726 9.08487 393.702L340.733 734.054C343.446 736.841 346.69 739.056 350.274 740.568C353.857 742.08 357.707 742.859 361.597 742.859C365.486 742.859 369.337 742.08 372.92 740.568C376.503 739.056 379.747 736.841 382.461 734.054C388.043 728.339 391.168 720.667 391.168 712.678C391.168 704.689 388.043 697.017 382.461 691.302L70.5889 371.366L382.461 51.4938C388.024 45.7816 391.137 38.1232 391.137 30.1498C391.137 22.1763 388.024 14.5179 382.461 8.80577C379.747 6.01899 376.503 3.80402 372.92 2.29161C369.337 0.7792 365.486 0 361.597 0C357.707 0 353.857 0.7792 350.274 2.29161C346.69 3.80402 343.446 6.01899 340.733 8.80577Z" fill="black"/>
</svg>
