<svg width="20" height="20" viewBox="0 0 20 20" fill="none" xmlns="http://www.w3.org/2000/svg">
<path d="M10 15C10.2833 15 10.521 14.904 10.713 14.712C10.9043 14.5207 11 14.2833 11 14V11H14C14.2833 11 14.5207 10.904 14.712 10.712C14.904 10.5207 15 10.2833 15 10C15 9.71667 14.904 9.479 14.712 9.287C14.5207 9.09567 14.2833 9 14 9H11V6C11 5.71667 10.9043 5.479 10.713 5.287C10.521 5.09567 10.2833 5 10 5C9.71667 5 9.47933 5.09567 9.288 5.287C9.096 5.479 9 5.71667 9 6V9H6C5.71667 9 5.479 9.09567 5.287 9.287C5.09567 9.479 5 9.71667 5 10C5 10.2833 5.09567 10.5207 5.287 10.712C5.479 10.904 5.71667 11 6 11H9V14C9 14.2833 9.096 14.5207 9.288 14.712C9.47933 14.904 9.71667 15 10 15ZM10 20C8.61667 20 7.31667 19.7373 6.1 19.212C4.88333 18.6873 3.825 17.975 2.925 17.075C2.025 16.175 1.31267 15.1167 0.788 13.9C0.262667 12.6833 0 11.3833 0 10C0 8.61667 0.262667 7.31667 0.788 6.1C1.31267 4.88333 2.025 3.825 2.925 2.925C3.825 2.025 4.88333 1.31233 6.1 0.787C7.31667 0.262333 8.61667 0 10 0C11.3833 0 12.6833 0.262333 13.9 0.787C15.1167 1.31233 16.175 2.025 17.075 2.925C17.975 3.825 18.6873 4.88333 19.212 6.1C19.7373 7.31667 20 8.61667 20 10V18C20 18.55 19.8043 19.021 19.413 19.413C19.021 19.8043 18.55 20 18 20H10ZM10 18C12.2333 18 14.125 17.225 15.675 15.675C17.225 14.125 18 12.2333 18 10C18 7.76667 17.225 5.875 15.675 4.325C14.125 2.775 12.2333 2 10 2C7.76667 2 5.875 2.775 4.325 4.325C2.775 5.875 2 7.76667 2 10C2 12.2333 2.775 14.125 4.325 15.675C5.875 17.225 7.76667 18 10 18Z" fill="black"/>
</svg>
