<svg width="34" height="22" viewBox="0 0 34 22" fill="none" xmlns="http://www.w3.org/2000/svg">
<path d="M26.8558 2.99871C25.7742 2.99871 24.8316 3.29716 23.9045 3.5814C22.8228 1.86176 20.7986 0.724806 18.6198 0.724806C16.9201 0.724806 15.3749 1.4354 14.2778 2.43023C13.0416 1.00904 11.1719 0 9.0086 0C5.40825 0 2.31782 2.71447 2.31782 6.02584C2.31782 6.86434 2.64232 7.71705 2.95136 8.56977C2.06131 9.01851 1.31817 9.67828 0.799154 10.4805C0.28014 11.2828 0.00419708 12.1983 0 13.1318C0 15.9742 2.48779 18.4186 5.59367 18.4186C6.05724 18.4186 6.5208 18.4186 6.82984 18.2765C7.44793 20.4225 9.7812 22 12.578 22C15.2049 22 17.3837 20.5646 18.1563 18.5607C18.9443 18.8592 19.7169 19.1434 20.4895 19.1434C22.5138 19.1434 24.368 18.1059 25.2951 16.5711C25.7742 16.6848 26.2686 16.6848 26.7013 16.6848C30.7343 16.6848 33.9947 13.7145 33.9947 9.86305C34.1492 6.02584 30.9043 2.99871 26.8558 2.99871Z" fill="#6200EA"/>
<path d="M7.71023 13.0991C7.23509 13.0991 6.82599 12.9915 6.48295 12.7763C6.14205 12.5589 5.87997 12.2596 5.69673 11.8782C5.51349 11.4968 5.42188 11.06 5.42188 10.5678C5.42188 10.0692 5.51562 9.62926 5.70312 9.24787C5.89062 8.86435 6.15483 8.56499 6.49574 8.34979C6.83665 8.13459 7.23828 8.02699 7.70064 8.02699C8.07351 8.02699 8.40589 8.09624 8.6978 8.23473C8.9897 8.37109 9.22514 8.56285 9.40412 8.81001C9.58523 9.05717 9.69283 9.34588 9.72692 9.67614H8.79688C8.74574 9.44602 8.62855 9.24787 8.44531 9.08168C8.2642 8.91548 8.02131 8.83239 7.71662 8.83239C7.45028 8.83239 7.21697 8.9027 7.01669 9.04332C6.81854 9.18182 6.66406 9.37997 6.55327 9.63778C6.44247 9.89347 6.38707 10.196 6.38707 10.5455C6.38707 10.9034 6.44141 11.2124 6.55007 11.4723C6.65874 11.7322 6.81214 11.9336 7.0103 12.0763C7.21058 12.2191 7.44602 12.2905 7.71662 12.2905C7.89773 12.2905 8.06179 12.2575 8.20881 12.1914C8.35795 12.1232 8.4826 12.0263 8.58274 11.9006C8.68501 11.7749 8.75639 11.6236 8.79688 11.4467H9.72692C9.69283 11.7642 9.58949 12.0476 9.4169 12.2969C9.24432 12.5462 9.01314 12.7422 8.72337 12.8849C8.43572 13.0277 8.09801 13.0991 7.71023 13.0991ZM10.7488 13V8.09091H11.7045V10.1491H12.1647L13.7851 8.09091H14.9676L13.066 10.4783L14.99 13H13.8042L12.3245 11.0376H11.7045V13H10.7488ZM17.5979 13.0991C17.1377 13.0991 16.7361 12.9936 16.393 12.7827C16.05 12.5717 15.7836 12.2766 15.594 11.8974C15.4044 11.5181 15.3096 11.0749 15.3096 10.5678C15.3096 10.0586 15.4044 9.61328 15.594 9.23189C15.7836 8.8505 16.05 8.55433 16.393 8.34339C16.7361 8.13246 17.1377 8.02699 17.5979 8.02699C18.0581 8.02699 18.4598 8.13246 18.8028 8.34339C19.1459 8.55433 19.4122 8.8505 19.6018 9.23189C19.7915 9.61328 19.8863 10.0586 19.8863 10.5678C19.8863 11.0749 19.7915 11.5181 19.6018 11.8974C19.4122 12.2766 19.1459 12.5717 18.8028 12.7827C18.4598 12.9936 18.0581 13.0991 17.5979 13.0991ZM17.6011 12.2969C17.8994 12.2969 18.1466 12.218 18.3426 12.0604C18.5386 11.9027 18.6835 11.6928 18.7773 11.4308C18.8731 11.1687 18.9211 10.88 18.9211 10.5646C18.9211 10.2514 18.8731 9.96378 18.7773 9.7017C18.6835 9.4375 18.5386 9.2255 18.3426 9.0657C18.1466 8.90589 17.8994 8.82599 17.6011 8.82599C17.3007 8.82599 17.0514 8.90589 16.8532 9.0657C16.6572 9.2255 16.5113 9.4375 16.4154 9.7017C16.3216 9.96378 16.2748 10.2514 16.2748 10.5646C16.2748 10.88 16.3216 11.1687 16.4154 11.4308C16.5113 11.6928 16.6572 11.9027 16.8532 12.0604C17.0514 12.218 17.3007 12.2969 17.6011 12.2969ZM20.9529 14.8409V8.09091H21.8862V8.88672H21.9661C22.0215 8.78445 22.1014 8.66619 22.2058 8.53196C22.3102 8.39773 22.4551 8.28054 22.6404 8.1804C22.8258 8.07812 23.0708 8.02699 23.3755 8.02699C23.7718 8.02699 24.1255 8.12713 24.4366 8.32741C24.7477 8.5277 24.9917 8.81641 25.1685 9.19354C25.3475 9.57067 25.437 10.0245 25.437 10.555C25.437 11.0856 25.3485 11.5405 25.1717 11.9197C24.9949 12.2969 24.752 12.5877 24.443 12.7923C24.1341 12.9947 23.7814 13.0959 23.3851 13.0959C23.0868 13.0959 22.8429 13.0458 22.6532 12.9457C22.4657 12.8455 22.3187 12.7283 22.2122 12.5941C22.1056 12.4599 22.0236 12.3406 21.9661 12.2362H21.9086V14.8409H20.9529ZM21.8894 10.5455C21.8894 10.8906 21.9395 11.1932 22.0396 11.4531C22.1397 11.7131 22.2846 11.9165 22.4743 12.0636C22.6639 12.2085 22.8961 12.2809 23.171 12.2809C23.4565 12.2809 23.6951 12.2053 23.8869 12.054C24.0787 11.9006 24.2235 11.6928 24.3216 11.4308C24.4217 11.1687 24.4718 10.8736 24.4718 10.5455C24.4718 10.2216 24.4228 9.93075 24.3248 9.67294C24.2289 9.41513 24.084 9.21165 23.8901 9.0625C23.6983 8.91335 23.4586 8.83878 23.171 8.83878C22.894 8.83878 22.6596 8.91016 22.4679 9.05291C22.2782 9.19567 22.1344 9.39489 22.0364 9.65057C21.9384 9.90625 21.8894 10.2045 21.8894 10.5455ZM28.5755 13.0991C28.1152 13.0991 27.7136 12.9936 27.3706 12.7827C27.0275 12.5717 26.7612 12.2766 26.5716 11.8974C26.3819 11.5181 26.2871 11.0749 26.2871 10.5678C26.2871 10.0586 26.3819 9.61328 26.5716 9.23189C26.7612 8.8505 27.0275 8.55433 27.3706 8.34339C27.7136 8.13246 28.1152 8.02699 28.5755 8.02699C29.0357 8.02699 29.4373 8.13246 29.7804 8.34339C30.1234 8.55433 30.3897 8.8505 30.5794 9.23189C30.769 9.61328 30.8638 10.0586 30.8638 10.5678C30.8638 11.0749 30.769 11.5181 30.5794 11.8974C30.3897 12.2766 30.1234 12.5717 29.7804 12.7827C29.4373 12.9936 29.0357 13.0991 28.5755 13.0991ZM28.5787 12.2969C28.877 12.2969 29.1241 12.218 29.3201 12.0604C29.5162 11.9027 29.661 11.6928 29.7548 11.4308C29.8507 11.1687 29.8986 10.88 29.8986 10.5646C29.8986 10.2514 29.8507 9.96378 29.7548 9.7017C29.661 9.4375 29.5162 9.2255 29.3201 9.0657C29.1241 8.90589 28.877 8.82599 28.5787 8.82599C28.2782 8.82599 28.0289 8.90589 27.8308 9.0657C27.6348 9.2255 27.4888 9.4375 27.3929 9.7017C27.2992 9.96378 27.2523 10.2514 27.2523 10.5646C27.2523 10.88 27.2992 11.1687 27.3929 11.4308C27.4888 11.6928 27.6348 11.9027 27.8308 12.0604C28.0289 12.218 28.2782 12.2969 28.5787 12.2969Z" fill="white"/>
</svg>
